# xmcd
#
# Track frame offsets: 
#        150
#        26377
#        56702
#        75105
#
# Disc length: 1407 seconds
#
# Revision: 2
# Processed by: cddbd v1.5.2PL0 Copyright (c) Steve Scherf et al.
# Submitted via: ExactAudioCopy v0.99pb3
#
DISCID=1f057d04
DTITLE=Various Artist - Super Eurobeat 127 - Greatest Remix Collectio
DTITLE=n 11
DYEAR=2002
DGENRE=Eurobeat
TTITLE0=Domino - Gotcha! (Y&Co. Remix)
TTITLE1=Kevin Johnson and Cherry - Happy Phantom (New Generation Remix)
TTITLE2=Virginelle - Lucky Tango (B4 Za Beat Remix)
TTITLE3=Lou Grant - Always On My Mind (New Generation Remix)
EXTD=
EXTT0=
EXTT1=
EXTT2=
EXTT3=
PLAYORDER=
